<svg xmlns="http://www.w3.org/2000/svg" viewBox="0 0 64 64" fill="none">
  <!-- Gradient definitions -->
  <defs>
    <linearGradient id="qwenGrad1" x1="0%" y1="0%" x2="100%" y2="100%">
      <stop offset="0%" style="stop-color:#6366f1;stop-opacity:1" />
      <stop offset="100%" style="stop-color:#8b5cf6;stop-opacity:1" />
    </linearGradient>
    <linearGradient id="qwenGrad2" x1="0%" y1="0%" x2="100%" y2="100%">
      <stop offset="0%" style="stop-color:#8b5cf6;stop-opacity:1" />
      <stop offset="100%" style="stop-color:#a855f7;stop-opacity:1" />
    </linearGradient>
  </defs>

  <!-- Background circle -->
  <circle cx="32" cy="32" r="30" fill="url(#qwenGrad1)" opacity="0.1"/>

  <!-- Main Q shape representing Qwen -->
  <g transform="translate(32, 32)">
    <!-- Outer ring -->
    <circle cx="0" cy="0" r="20" fill="none" stroke="url(#qwenGrad1)" stroke-width="3"/>

    <!-- Inner design - representing embeddings/vectors -->
    <g>
      <!-- Central node -->
      <circle cx="0" cy="0" r="4" fill="url(#qwenGrad2)"/>

      <!-- Embedding vectors radiating outward -->
      <line x1="0" y1="0" x2="12" y2="0" stroke="url(#qwenGrad2)" stroke-width="2" opacity="0.8"/>
      <line x1="0" y1="0" x2="8.5" y2="8.5" stroke="url(#qwenGrad2)" stroke-width="2" opacity="0.8"/>
      <line x1="0" y1="0" x2="0" y2="12" stroke="url(#qwenGrad2)" stroke-width="2" opacity="0.8"/>
      <line x1="0" y1="0" x2="-8.5" y2="8.5" stroke="url(#qwenGrad2)" stroke-width="2" opacity="0.8"/>
      <line x1="0" y1="0" x2="-12" y2="0" stroke="url(#qwenGrad2)" stroke-width="2" opacity="0.8"/>
      <line x1="0" y1="0" x2="-8.5" y2="-8.5" stroke="url(#qwenGrad2)" stroke-width="2" opacity="0.8"/>
      <line x1="0" y1="0" x2="0" y2="-12" stroke="url(#qwenGrad2)" stroke-width="2" opacity="0.8"/>
      <line x1="0" y1="0" x2="8.5" y2="-8.5" stroke="url(#qwenGrad2)" stroke-width="2" opacity="0.8"/>

      <!-- Small nodes at the end of vectors -->
      <circle cx="12" cy="0" r="2" fill="url(#qwenGrad2)"/>
      <circle cx="8.5" cy="8.5" r="2" fill="url(#qwenGrad2)"/>
      <circle cx="0" cy="12" r="2" fill="url(#qwenGrad2)"/>
      <circle cx="-8.5" cy="8.5" r="2" fill="url(#qwenGrad2)"/>
      <circle cx="-12" cy="0" r="2" fill="url(#qwenGrad2)"/>
      <circle cx="-8.5" cy="-8.5" r="2" fill="url(#qwenGrad2)"/>
      <circle cx="0" cy="-12" r="2" fill="url(#qwenGrad2)"/>
      <circle cx="8.5" cy="-8.5" r="2" fill="url(#qwenGrad2)"/>
    </g>

    <!-- Q tail to make it clear it's Qwen -->
    <line x1="14" y1="14" x2="20" y2="20" stroke="url(#qwenGrad1)" stroke-width="3" stroke-linecap="round"/>
  </g>
</svg>